<svg xmlns="http://www.w3.org/2000/svg" width="100" height="100"><path fill="#4c102a" d="M75.63783143 65.19935235c0 1.26149638-1.02224707 2.28374344-2.28374344 2.28374344s-2.28374344-1.02224706-2.28374344-2.28374344 1.02224706-2.28374344 2.28374344-2.28374344 2.28374344 1.02224706 2.28374344 2.28374344zm6.17698226-22.61993504v43.71737445H16.99999984V42.5794173h13.94170995c.58724832-3.04499125 3.69748939-5.89423307 8.09097677-7.17747938l-10.0267212-16.89970147c-.15224957.02174994-.30449913.06524982-.4567487.06524982-1.26149637 0-2.28374344-1.00049713-2.28374344-2.28374345s1.02224707-2.28374344 2.28374345-2.28374344c1.26149637 0 2.28374344 1.043997 2.28374344 2.30549338 0 .56549838-.19574944 1.08749688-.54374844 1.47899575l10.24422058 17.35645016c1.391996-.30449913 2.87099175-.43499875 4.41523732-.43499875 1.63124531 0 3.17549088.1739995 4.61098675.5219985l7.26447914-9.56997252c-.23924931-.36974894-.39149887-.80474769-.39149887-1.26149637 0-1.26149638 1.02224706-2.28374345 2.28374344-2.28374345 1.26149637 0 2.28374344 1.02224707 2.28374344 2.28374345s-1.02224707 2.28374344-2.28374344 2.28374344c-.23924932 0-.47849863-.04349988-.695998-.1087497l-6.85123033 9.02622409c-.02174994 0-.04349987-.02174994-.04349987-.02174994l-.04349988.06524981h.04349988l.04349987-.08699975c4.04548838 1.32674619 6.98172995 4.0019885 7.74297776 7.04697976H81.8148137zm-48.54586058 0H56.6066361c-1.17449663-3.04499125-5.87248314-5.8507332-11.61446665-5.8507332-5.89423307 0-10.80971895 2.80574195-11.72321633 5.8507332zm46.37086682 2.39249313H19.1749936V84.121798h60.46482634V44.97191044zM65.9373593 50.19189545V78.901813H23.74248047V50.19189545H65.9373593zM26.11322366 75.61757243 46.01441651 52.3668892H25.91747422v23.4681826l.19574944-.21749937zM63.76236553 52.3668892h-15.7687047L27.33122015 76.50931987h36.43114537V52.3668892zM51.1691517 35.5541875l-.04349987.06524981c.02174993 0 .04349987 0 .04349987.02174994l.04349988-.06524981c-.02174994-.02174994-.04349988-.02174994-.04349988-.02174994zM73.354088 69.89733886c-1.26149638 0-2.28374344 1.02224706-2.28374344 2.28374344s1.02224706 2.28374344 2.28374344 2.28374344 2.28374344-1.02224707 2.28374344-2.28374344-1.02224707-2.28374344-2.28374344-2.28374344zM51.1691517 35.55418749l-.04349987.06524981c.02174993 0 .04349987 0 .04349987.02174994l.04349988-.06524981c-.02174994-.02174994-.04349988-.02174994-.04349988-.02174994zm25.36042717 23.25068322H70.1785971v1.5007457h6.35098176v-1.5007457zm0-2.93624156H70.1785971v1.50074569h6.35098176v-1.5007457z"/></svg>