<svg xmlns="http://www.w3.org/2000/svg" width="403" height="100"><path fill="#4c102a" d="M0 0h403v100H0zm4 4v92h395V4z"/><path fill="#4c102a" d="M75.63783143 65.19935235c0 1.26149638-1.02224707 2.28374344-2.28374344 2.28374344s-2.28374344-1.02224706-2.28374344-2.28374344 1.02224706-2.28374344 2.28374344-2.28374344 2.28374344 1.02224706 2.28374344 2.28374344zm6.17698226-22.61993504v43.71737445H16.99999984V42.5794173h13.94170995c.58724832-3.04499125 3.69748939-5.89423307 8.09097677-7.17747938l-10.0267212-16.89970147c-.15224957.02174994-.30449913.06524982-.4567487.06524982-1.26149637 0-2.28374344-1.00049713-2.28374344-2.28374345s1.02224707-2.28374344 2.28374345-2.28374344c1.26149637 0 2.28374344 1.043997 2.28374344 2.30549338 0 .56549838-.19574944 1.08749688-.54374844 1.47899575l10.24422058 17.35645016c1.391996-.30449913 2.87099175-.43499875 4.41523732-.43499875 1.63124531 0 3.17549088.1739995 4.61098675.5219985l7.26447914-9.56997252c-.23924931-.36974894-.39149887-.80474769-.39149887-1.26149637 0-1.26149638 1.02224706-2.28374345 2.28374344-2.28374345 1.26149637 0 2.28374344 1.02224707 2.28374344 2.28374345s-1.02224707 2.28374344-2.28374344 2.28374344c-.23924932 0-.47849863-.04349988-.695998-.1087497l-6.85123033 9.02622409c-.02174994 0-.04349987-.02174994-.04349987-.02174994l-.04349988.06524981h.04349988l.04349987-.08699975c4.04548838 1.32674619 6.98172995 4.0019885 7.74297776 7.04697976H81.8148137zm-48.54586058 0H56.6066361c-1.17449663-3.04499125-5.87248314-5.8507332-11.61446665-5.8507332-5.89423307 0-10.80971895 2.80574195-11.72321633 5.8507332zm46.37086682 2.39249313H19.1749936V84.121798h60.46482634V44.97191044zM65.9373593 50.19189545V78.901813H23.74248047V50.19189545H65.9373593zM26.11322366 75.61757243 46.01441651 52.3668892H25.91747422v23.4681826l.19574944-.21749937zM63.76236553 52.3668892h-15.7687047L27.33122015 76.50931987h36.43114537V52.3668892zM51.1691517 35.5541875l-.04349987.06524981c.02174993 0 .04349987 0 .04349987.02174994l.04349988-.06524981c-.02174994-.02174994-.04349988-.02174994-.04349988-.02174994zM73.354088 69.89733886c-1.26149638 0-2.28374344 1.02224706-2.28374344 2.28374344s1.02224706 2.28374344 2.28374344 2.28374344 2.28374344-1.02224707 2.28374344-2.28374344-1.02224707-2.28374344-2.28374344-2.28374344zM51.1691517 35.55418749l-.04349987.06524981c.02174993 0 .04349987 0 .04349987.02174994l.04349988-.06524981c-.02174994-.02174994-.04349988-.02174994-.04349988-.02174994zm25.36042717 23.25068322H70.1785971v1.5007457h6.35098176v-1.5007457zm0-2.93624156H70.1785971v1.50074569h6.35098176v-1.5007457z"/><path fill="#4c102a" d="m128.6152392 33.57371637-2.67120345 1.66941669q-3.45809639-4.62669448-9.44418048-4.62669448-4.79363707 0-7.9536217 3.07651334T105.3863596 41.181504q0 2.86187287 1.45478537 5.40178505t3.9828723 3.92304007 5.67600207 1.38324772q5.79529258 0 9.44418049-4.5789966l2.67120346 1.74097114q-1.88406631 2.814175-5.04405095 4.35243166t-7.21430072 1.5382498q-6.17687562 0-10.26696893-3.9350752t-4.09008187-9.56338703q0-3.8158305 1.91983972-7.0712109t5.24667535-5.07987777 7.47658565-1.8244432q2.57568559 0 4.99635306.78701505t4.11401476 2.06294176 2.86193392 3.25536131zm6.41485371-14.88259369h3.38650378v14.8103066q2.02715995-2.69493029 4.47167637-4.03047096t5.30650757-1.33555289q2.95726864 0 5.222918 1.49055879t3.33888221 3.99459453 1.0731947 7.89394592v13.45077198h-3.33888221V42.49233413q0-4.53129872-.38158305-6.05763092-.62007246-2.59953453-2.26564936-3.89930179t-4.31671168-1.29977566q-3.0526644 0-5.47333187 2.01523548t-3.18380686 4.99635688q-.45312987 1.90791525-.45312987 7.13083324v9.58731992h-3.38650378V18.6899497zm31.14676224-.69112322q1.14474915 0 1.9675376.81086398t.82277853 1.95561008-.82277853 1.96752768-1.96752768.82277853-1.95561008-.82277853-.81086093-1.96752768.81086093-1.95561008 1.95561008-.81086093zm-1.6694411 10.75514721h3.3628151v26.16255497h-3.3628151V28.75514667zm35.7023449 4.8185697-2.67120346 1.66941669q-3.4580964-4.62669448-9.44418049-4.62669448-4.79363706 0-7.9536217 3.07651334t-3.15987397 7.48855209q0 2.86187287 1.45478538 5.40178505t3.9828723 3.92304007 5.67600207 1.38324772q5.79529257 0 9.44418049-4.5789966l2.67120345 1.74097114q-1.8840663 2.814175-5.04405094 4.35243166t-7.21430072 1.5382498q-6.17687562 0-10.26696894-3.9350752t-4.09008187-9.56338703q0-3.8158305 1.91983972-7.0712109t5.24667536-5.07987777 7.47658564-1.8244432q2.5756856 0 4.99635307.78701505t4.11401475 2.06294176 2.86193393 3.25536131zm6.39116502-14.92899419h3.38650378v20.65310626l12.09148158-10.54121649h4.96070175l-10.94661032 9.94509219 11.78133088 16.21721857h-4.76972707L212.8017401 40.84809353l-2.81406815 2.31335792v11.7576422h-3.38650378V18.64367207zm46.7441602 26.9728542 2.81406814 1.50247258q-1.35938961 2.74262817-3.19575804 4.41205402t-4.1259812 2.53981678-5.1751209.87049778q-6.39151609 0-9.99270612-4.18548908T230.0684189 41.300751q0-4.98442859 3.0526644-8.8718059 3.86352838-4.96057966 10.37428917-4.96057966 6.65385443 0 10.66047645 5.07982435 2.83802394 3.5773411 2.86187288 8.9195038h-23.4911073q.09539576 4.5789966 2.90957076 7.50049182t6.94004935 2.92152194q2.00331101 0 3.88737732-.70354375t3.20773975-1.84830282 2.87390037-3.72034316zm0-7.03553669q-.66777034-2.69493029-1.95561314-4.30473378t-3.41043666-2.599649-4.45982058-.98972264q-3.83967944 0-6.60615655 2.48028982-2.00331102 1.81251949-3.02881546 5.41370952h19.46085765zm9.92076245 6.4154795-.04769727-2.79037947q-.07154683-2.0510089.16694258-3.48194533.5246767-4.50744978 2.2894983-6.60615655 1.71712372-1.83636843 3.50579427-2.83802393 2.95726864-1.26399386 6.7492502-1.19244704 2.95726863 0 5.47333187 1.4905588t3.5892007 4.00656096 1.07319469 7.88197948V54.9184381h-3.33888222V42.44549557q0-4.53129871-.38158304-6.05763091-.59622352-2.59953453-2.36104513-3.68466133t-5.22298668-1.08513672q-3.0526644 0-5.43755846 1.7648216t-2.21794384 4.81759285q-.45312988 1.95561313-.45312988 7.13083325v9.58731992h-3.38650377v-9.9211593zm55.3539025-11.42380282-2.67120346 1.66941669q-3.4580964-4.62669448-9.44418049-4.62669448-4.79363706 0-7.9536217 3.07651334T295.3908695 41.181504q0 2.86187287 1.45478538 5.40178505t3.9828723 3.92304007 5.67600207 1.38324772q5.79529257 0 9.44418049-4.5789966l2.67120345 1.74097114q-1.8840663 2.814175-5.04405094 4.35243166t-7.21430072 1.5382498q-6.17687562 0-10.26696894-3.9350752t-4.09008187-9.56338703q0-3.8158305 1.91983972-7.0712109t5.24667536-5.07987777 7.47658565-1.8244432q2.57568558 0 4.99635306.78701505t4.11401475 2.06294176 2.86193393 3.25536131zm18.79255309-6.105573q6.03378198 0 10.01655506 4.36435613 3.67273685 3.98277308 3.67273685 9.46802942.04769789 13.54619827 0 13.76083874h-3.55354557v-5.938287q-2.79032605 5.19906905-10.13579976 5.8191415-6.00993304 0-9.81383907-4.09009331t-3.80386405-9.55142059q0-5.43755846 3.60119003-9.44418048 3.98277308-4.38820507 10.01655506-4.38820507zm0 3.29199328q-4.1735646 0-7.17853113 3.10036228t-3.00504283 7.4885521q0 2.83802393 1.53825667 5.4614074t5.21102024 4.43588768q9.20569107 2.0510089 13.0930684-8.37097815.21464046-3.33885169-.71546822-6.39151609-.66777034-1.38323855-1.83636843-2.62338347-2.9334197-3.10036228-7.1069843-3.10036228zm33.36475187.23688676-2.14641381 2.24180347q-2.71877923-2.62338347-5.27061588-2.62338347-1.6455769 0-2.81417499 1.07320233t-1.16860877 2.55178322q0 1.24014492.97780656 2.38489406.95395763 1.21629598 4.03047097 2.79032606 3.76813261 1.93176419 5.10367329 3.74428367 1.31169173 1.83636843 1.31169173 4.12586673 0 3.19575804-2.25372489 5.425634t-5.64034695 2.22988586q-2.26564936 0-4.32858273-.9658821t-3.39847022-2.70685857l2.12255419-2.40874758q2.57568559 2.90957076 5.4614074 2.90957076 2.00331101 0 3.42232298-1.29976727t1.41900052-3.04069795q0-1.45478538-.93010868-2.57568559t-4.22122434-2.81406815q-3.55349215-1.78867055-4.817486-3.60119003-1.2878428-1.7648216-1.2878428-4.0543199 0-2.98111759 2.03908443-4.94865519t5.1155329-1.96752768q3.60119003 0 7.27392688 3.52964321zm15.35856513 20.2250006q-2.48028983 1.33554068-4.86518389.21464047-2.90957075-2.21795148-2.76647711-6.31996927V34.05066466h6.20081614v-2.8856226h-6.22450482V18.52505774h-3.38650377v27.16382889q-.04769788 2.86187287 1.31169173 5.24676693 2.24180042 3.79198156 6.1053288 4.00662203 2.0510089.07154682 4.67439236-.93010869-.40543199-1.0016555-1.04935339-2.79032605zM111.5837235 73.66998046c2.0131131.55576238 3.35936195 1.87728679 3.35936195 4.42143784 0 3.01347276-1.8278379 5.00192467-5.59467885 5.00192467h-7.34840668v-17.8458595h5.77995406c3.85334486 0 5.87872534 1.8524991 5.87872534 4.89075953 0 1.56845263-.67927075 2.85298522-2.07482936 3.53224333zm-3.76684095-5.3480668h-2.24771073v4.1991076h2.40832473c1.58084646 0 2.2724984-.93863075 2.2724984-2.14893945 0-1.18563484-.77806733-2.05016815-2.43298593-2.05016815zm.83974564 11.59734255c2.00071928 0 2.69237122-1.07448236 2.69237122-2.23544336 0-1.18563484-.67927075-2.30955344-2.7664813-2.30955344h-3.01347276v4.5449968h3.08758284zm17.48820485 3.42109085c-5.24891612 0-9.12692218-3.58156573-9.12692218-9.17637105 0-5.60707269 3.87800606-9.16397722 9.12692218-9.16397722 5.23652228 0 9.11452834 3.55690453 9.11452834 9.16397722 0 5.59467885-3.87800606 9.17637105-9.11452834 9.17637105zm0-3.39630317c3.075189 0 5.43419132-2.16133328 5.43419132-5.77995406 0-3.60635341-2.35887586-5.75529285-5.43419132-5.75529285s-5.43419132 2.14893944-5.43419132 5.75529285c0 3.61862078 2.35887585 5.77995406 5.43419132 5.77995406zm20.42750033 3.39630317c-5.24891611 0-9.12692218-3.56929836-9.12692218-9.17637105s3.87800607-9.16397722 9.12692218-9.16397722c3.97677735 0 7.16325794 2.03777432 8.43527024 5.42179748l-3.45813325 1.25973228c-.79042323-2.07482936-2.67997738-3.27285804-4.97713699-3.27285804-3.075189 0-5.43419132 2.14893944-5.43419132 5.75529285s2.35887585 5.76756022 5.43419132 5.76756022c2.2971596 0 4.18671376-1.21033399 4.977137-3.28525188l3.45813324 1.25973228c-1.27213877 3.38402317-4.45849289 5.43419132-8.43527024 5.43419132zm22.0332886-.2470041-5.54535644-7.58313075h-1.3091938v7.58313076h-3.7051247v-17.8458595h3.7051247v7.01503777h1.25973227l5.59467885-7.01503778h4.52020913L166.2094255 73.781525l7.1262029 9.31219738h-4.73014554zm24.30553406-17.8458595v3.2604642h-4.23616264v14.58552177h-3.66806965V68.50794767h-4.26082385v-3.2604642h12.16505614zm10.70750385 18.0928636c-5.24891612 0-9.12692218-3.58156573-9.12692218-9.17637105 0-5.60707269 3.87800606-9.16397722 9.12692218-9.16397722 5.23652227 0 9.11452834 3.55690453 9.11452834 9.16397722 0 5.59467885-3.87800607 9.17637105-9.11452834 9.17637105zm0-3.39630317c3.075189 0 5.43419131-2.16133328 5.43419131-5.77995406 0-3.60635341-2.35887585-5.75529285-5.43419131-5.75529285s-5.43419132 2.14893944-5.43419132 5.75529285c0 3.61862078 2.35887585 5.77995406 5.43419132 5.77995406zM233.062186 65.24748346v3.2604642h-4.23616264v14.58552177h-3.66806966V68.50794767h-4.26082384v-3.2604642h12.16505614zm14.05485137 0h3.7051247v17.8458595h-3.7051247v-7.3361393h-7.54607572v7.3361393h-3.7051247v-17.8458595h3.7051247v7.28669044h7.54607572v-7.28669044zm18.67361047 3.26033774h-6.61982616v4.05088743h5.86645797v3.22340917h-5.86645797v4.03862006h6.61982616v3.27285804h-10.34961207V65.2477364h10.34961207v3.2604642zm13.28870204 14.58552177-4.6684293-17.8458595h3.85334486l3.48279445 13.51181085 3.98917119-13.51181086h3.12463788l3.96450998 13.51181086 3.5198495-13.51181086h3.84095101l-4.66842929 17.8458595h-4.76720058l-3.45813325-11.02887016-3.4457394 11.02887017h-4.76720059zm34.3095968-14.58552177h-6.61982616v4.05088743h5.86645797v3.22340917h-5.86645797v4.03862006h6.61982616v3.27285804h-10.34961206V65.2477364h10.34961206v3.2604642zm13.39985135 5.16215926c2.01311312.55576238 3.35936196 1.87728679 3.35936196 4.42143784 0 3.01347276-1.8278379 5.00192467-5.59467885 5.00192467h-7.34840668v-17.8458595h5.77995406c3.85334486 0 5.87872534 1.8524991 5.87872534 4.89075953 0 1.56845263-.67927075 2.85298522-2.07482936 3.53224333zm-3.76684094-5.3480668h-2.24771073v4.1991076h2.40832473c1.58084646 0 2.2724984-.93863075 2.2724984-2.14893945 0-1.18563484-.77806733-2.05016815-2.43298593-2.05016815zm.83974564 11.59734255c2.00071928 0 2.69237122-1.07448236 2.69237122-2.23544336 0-1.18563484-.67927075-2.30955344-2.7664813-2.30955344h-3.01347276v4.5449968h3.08758284z"/></svg>